<svg xmlns="http://www.w3.org/2000/svg" xmlns:xlink="http://www.w3.org/1999/xlink" version="1.1" width="1000" height="1000" viewBox="0 0 1000 1000" xml:space="preserve">
<desc>Created with Fabric.js 3.5.0</desc>
<defs>
</defs>
<rect x="0" y="0" width="100%" height="100%" fill="#ffffff"/>
<g transform="matrix(1.1969 0 0 1.1969 500 500)" id="343274">
<g style="" vector-effect="non-scaling-stroke">
		<g transform="matrix(1.2823 0 0 1.2823 -0.0029 -0.001)" id="path2877">
<path style="stroke: rgb(32,249,78); stroke-width: 10; stroke-dasharray: none; stroke-linecap: butt; stroke-dashoffset: 0; stroke-linejoin: miter; stroke-miterlimit: 4; is-custom-font: none; font-file-url: none; fill: rgb(26,197,113); fill-rule: nonzero; opacity: 1;" transform=" translate(-373.495, -373.87)" d="m 373.48 82.695 c -159.89 0 -290.37 130.76 -290.37 291.16 c 0 160.32 130.48 291.19 290.37 291.19 c 159.97 0 290.4 -130.87 290.4 -291.19 c 0 -160.4 -130.44 -291.16 -290.4 -291.16 z" stroke-linecap="round"/>
</g>
		<g transform="matrix(1.2823 0 0 1.2823 162.5781 -185.9397)" id="path3859">
<linearGradient id="SVGID_11" gradientUnits="userSpaceOnUse" gradientTransform="matrix(1 0 0 1 0 0)" x1="453.81" y1="100.28" x2="761.79" y2="409.98">
<stop offset="0%" style="stop-color:rgb(153,153,153);stop-opacity: 1"/>
<stop offset="23.377%" style="stop-color:rgb(153,153,153);stop-opacity: 0.49804"/>
<stop offset="100%" style="stop-color:rgb(153,153,153);stop-opacity: 0"/>
</linearGradient>
<path style="stroke: rgb(0,0,0); stroke-width: 3.1995; stroke-dasharray: none; stroke-linecap: butt; stroke-dashoffset: 0; stroke-linejoin: miter; stroke-miterlimit: 4; is-custom-font: none; font-file-url: none; fill: url(#SVGID_11); fill-rule: nonzero; opacity: 1;" transform=" translate(-500.2835, -228.866)" d="m 468.16 101.88 c -39.234 27.41 -90.662 63.403 -90.406 63.656 c 132.54 25.291 165.67 108.72 120.11 190.32 l 124.95 -126.7 c -34.6 -59.3 -89.59 -104.7 -154.65 -127.28 z" stroke-linecap="round"/>
</g>
		<g transform="matrix(3.4086 -1.7296 1.939 3.8213 75.3817 -139.4834)" id="path3047">
<path style="stroke: rgb(0,0,0); stroke-width: 1; stroke-dasharray: none; stroke-linecap: butt; stroke-dashoffset: 0; stroke-linejoin: miter; stroke-miterlimit: 4; is-custom-font: none; font-file-url: none; fill: rgb(255,255,255); fill-rule: evenodd; opacity: 1;" transform=" translate(-377.86, -501.47)" d="m 407.86 501.47 c 0 18.64 -13.431 33.75 -30 33.75 s -30 -15.11 -30 -33.75 s 13.431 -33.75 30 -33.75 s 30 15.11 30 33.75 z" stroke-linecap="round"/>
</g>
		<g transform="matrix(2.7688 -1.4049 1.575 3.104 75.3471 -139.5124)" id="path3842">
<linearGradient id="SVGID_12" gradientUnits="userSpaceOnUse" gradientTransform="matrix(1 0 0 1 0 0)" x1="377.86" y1="501.47" x2="255.91" y2="530.95">
<stop offset="0%" style="stop-color:rgb(78,78,78);stop-opacity: 1"/>
<stop offset="100%" style="stop-color:rgb(78,78,78);stop-opacity: 0"/>
</linearGradient>
<path style="stroke: rgb(0,0,0); stroke-width: 1; stroke-dasharray: none; stroke-linecap: butt; stroke-dashoffset: 0; stroke-linejoin: miter; stroke-miterlimit: 4; is-custom-font: none; font-file-url: none; fill: url(#SVGID_12); fill-rule: nonzero; opacity: 1;" transform=" translate(-377.86, -501.47)" d="m 407.86 501.47 c 0 18.64 -13.431 33.75 -30 33.75 s -30 -15.11 -30 -33.75 s 13.431 -33.75 30 -33.75 s 30 15.11 30 33.75 z" stroke-linecap="round"/>
</g>
		<g transform="matrix(1.2823 0 0 1.2823 -0.2297 75.9082)" id="path4177">
<path style="stroke: rgb(24,76,175); stroke-width: 1; stroke-dasharray: none; stroke-linecap: butt; stroke-dashoffset: 0; stroke-linejoin: miter; stroke-miterlimit: 4; is-custom-font: none; font-file-url: none; fill: rgb(45,175,255); fill-rule: nonzero; opacity: 1;" transform=" translate(-341.7541, -594.2277)" d="m 343.45 435.77 c -13.302 -0.1602 -32.94 14.284 -59.093 47.852 c -25.623 32.888 -30.12 72.636 -34.125 113.62 c -5.7637 58.995 -59.937 116.92 -65.454 112.73 c 19.35 33.205 120.83 36.23 205.23 46.592 c 167.83 20.606 98.339 -131.3 71.258 -220.77 c -3.1879 -45.755 5.9511 -48.537 14.969 -72.584 c 0.85987 -4.609 -6.0298 -11.102 -18.141 -10.73 c -7.0011 0.21483 -2.0384 6.5035 -1.6706 3.8721 c 1.288 -9.2143 -2.6838 -4.9857 -7.2084 -7.3328 c -3.9085 -2.0275 -12.885 -2.3283 -17.775 -5.5356 c -8.7989 -5.7706 -40.204 -17.985 -57.825 -11.777 c -10.191 0.2676 -22.578 7.2215 -30.166 4.0571 z" stroke-linecap="round"/>
</g>
		<g transform="matrix(1.2823 0 0 1.2823 -91.7476 48.0894)" id="path4112">
<path style="stroke: rgb(24,76,175); stroke-width: 3; stroke-dasharray: none; stroke-linecap: butt; stroke-dashoffset: 0; stroke-linejoin: miter; stroke-miterlimit: 4; is-custom-font: none; font-file-url: none; fill: rgb(45,175,255); fill-rule: nonzero; opacity: 1;" transform=" translate(-270.384, -572.5333)" d="m 355.67 434.91 c -20.276 3.5986 -22.853 -15.212 -72.082 47.975 c -25.623 32.888 -27.92 72.923 -34.093 113.64 c -9.3843 61.907 -36.721 89.862 -64.397 113.64" stroke-linecap="round"/>
</g>
		<g transform="matrix(1.2823 0 0 1.2823 -21.3769 44.1478)" id="path4114">
<path style="stroke: rgb(24,76,175); stroke-width: 3.0629; stroke-dasharray: none; stroke-linecap: butt; stroke-dashoffset: 0; stroke-linejoin: miter; stroke-miterlimit: 4; is-custom-font: none; font-file-url: none; fill: rgb(45,175,255); fill-rule: nonzero; opacity: 1;" transform=" translate(-325.2625, -569.4594)" d="m 434.33 443.58 c -19.676 -5.0306 -59.678 -72.169 -112.33 43.698 c -17.579 38.687 -33.251 69.388 -39.597 110.67 c -9.6482 62.765 -37.753 97.168 -66.208 121.28" stroke-linecap="round"/>
</g>
		<g transform="matrix(1.2823 0 0 1.2823 21.3801 52.3034)" id="path4116">
<path style="stroke: rgb(24,76,175); stroke-width: 2.946; stroke-dasharray: none; stroke-linecap: butt; stroke-dashoffset: 0; stroke-linejoin: miter; stroke-miterlimit: 4; is-custom-font: none; font-file-url: none; fill: rgb(45,175,255); fill-rule: nonzero; opacity: 1;" transform=" translate(-358.6065, -575.8195)" d="m 436.68 443.65 c -25.729 -6.4583 -24.924 -38.23 -71.727 25.86 c -24.36 33.357 -25.034 89.417 -30.902 130.72 c -8.9218 62.791 -27.205 97.209 -53.518 121.33" stroke-linecap="round"/>
</g>
		<g transform="matrix(1.2823 0 0 1.2823 42.91 61.7289)" id="path4118">
<path style="stroke: rgb(24,76,175); stroke-width: 3.1277; stroke-dasharray: none; stroke-linecap: butt; stroke-dashoffset: 0; stroke-linejoin: miter; stroke-miterlimit: 4; is-custom-font: none; font-file-url: none; fill: rgb(45,175,255); fill-rule: nonzero; opacity: 1;" transform=" translate(-375.3965, -583.17)" d="m 448.2 443.36 c -52.51 6.5287 -64.228 117.86 -70.848 159.13 c -10.063 62.75 -45.08 96.388 -74.759 120.49" stroke-linecap="round"/>
</g>
		<g transform="matrix(1.2823 0 0 1.2823 36.9237 174.0616)" id="path4120">
<path style="stroke: rgb(24,76,175); stroke-width: 3; stroke-dasharray: none; stroke-linecap: butt; stroke-dashoffset: 0; stroke-linejoin: miter; stroke-miterlimit: 4; is-custom-font: none; font-file-url: none; fill: rgb(45,175,255); fill-rule: nonzero; opacity: 1;" transform=" translate(-370.7281, -670.7725)" d="m 339.66 719.26 c 25.439 -9.6665 62.91 -58.588 62.124 -96.975" stroke-linecap="round"/>
</g>
		<g transform="matrix(1.2823 0 0 1.2823 116.1863 44.2127)" id="path4122">
<path style="stroke: rgb(24,76,175); stroke-width: 3; stroke-dasharray: none; stroke-linecap: butt; stroke-dashoffset: 0; stroke-linejoin: miter; stroke-miterlimit: 4; is-custom-font: none; font-file-url: none; fill: rgb(45,175,255); fill-rule: nonzero; opacity: 1;" transform=" translate(-432.541, -569.51)" d="m 461.09 450.58 c -61.534 50.466 5.7966 186.01 -57.098 237.86" stroke-linecap="round"/>
</g>
		<g transform="matrix(1.2823 0 0 1.2823 136.2297 74.8369)" id="path4124">
<path style="stroke: rgb(24,76,175); stroke-width: 2.5588; stroke-dasharray: none; stroke-linecap: butt; stroke-dashoffset: 0; stroke-linejoin: miter; stroke-miterlimit: 4; is-custom-font: none; font-file-url: none; fill: rgb(45,175,255); fill-rule: nonzero; opacity: 1;" transform=" translate(-448.1718, -593.3923)" d="m 476.39 464.79 c -35.063 48.05 -6.5635 98.484 10.48 154.76 c 18.318 60.481 10.55 111.73 -85.31 101.02" stroke-linecap="round"/>
</g>
		<g transform="matrix(1.2823 0 0 1.2823 -8.5347 257.6543)" id="path4136">
<path style="stroke: rgb(24,76,175); stroke-width: 4.1665; stroke-dasharray: none; stroke-linecap: butt; stroke-dashoffset: 0; stroke-linejoin: miter; stroke-miterlimit: 4; is-custom-font: none; font-file-url: none; fill: rgb(45,175,255); fill-rule: nonzero; opacity: 1;" transform=" translate(-366.8415, -574.8022)" d="m 131.78 486.62 c -7.8956 -0.11801 -14.749 2.4958 -20.031 6.9375 c 16.631 37.137 40.781 69.336 70 95.375 c 1.2824 1.1429 2.5733 2.2871 3.875 3.4062 c 45.97 39.909 104.49 65.314 168.09 69.844 c 0.81379 0.058 1.6221 0.1364 2.4375 0.1875 c 0.81989 0.055 1.648 0.10835 2.4688 0.15625 c 0.38702 0.0209 0.76888 0.0431 1.1562 0.0625 c 0.0933 0.005 0.18795 -0.005 0.28125 0 c 21.788 1.1606 43.833 -0.1952 65.75 -4.25 c 1.5524 -0.2872 3.1055 -0.5918 4.6562 -0.90625 c 82.031 -16.128 150.58 -66.609 191.47 -134.91 c -9.8705 -12.875 -43.282 -15.526 -120.28 9.1562 c -3.4811 14.871 -49.241 27.437 -40.938 12.062 c 13.043 -24.15 -23.675 -20.141 -31.25 4.3125 c -1.4148 4.5671 -22.074 30.505 -31.938 13.875 c -7.2975 -12.303 -29.452 11.346 -28.812 12.688 c 0.40566 0.85041 -22.874 11.604 -25.344 -4.1562 c -1.1193 -7.1435 -6.6102 -22.484 -29.906 -7.7812 c -4.065 2.5656 -25.819 12.214 -27.5 -3.0938 c -3.4849 -31.731 -16.969 -37.986 -31.406 -11.094 c -11.757 21.9 -35.249 -35.505 -51.969 -9.7188 c -2.7198 4.1947 -6.3125 1.0938 -6.3125 1.0938 c -22.912 -38.594 -46.452 -52.98 -64.5 -53.25 z" stroke-linecap="round"/>
</g>
		<g transform="matrix(1.2823 0 0 1.2823 -334.5686 96.73)" id="path4193">
<path style="stroke: rgb(24,76,175); stroke-width: 2.6796; stroke-dasharray: none; stroke-linecap: butt; stroke-dashoffset: 0; stroke-linejoin: miter; stroke-miterlimit: 4; is-custom-font: none; font-file-url: none; fill: rgb(45,175,255); fill-rule: nonzero; opacity: 1;" transform=" translate(-81.0203, -610.4656)" d="m 89.464 627.77 c -9.392 -5.71 -20.125 -14.77 -15.966 -31.55 c 1.1319 -4.5656 4.8574 -4.6486 7.5356 4.0791 l 8.4304 27.472 z" stroke-linecap="round"/>
</g>
		<g transform="matrix(1.2823 0 0 1.2823 -175.7475 141.4261)" id="path4205">
<path style="stroke: rgb(24,76,175); stroke-width: 2.7913; stroke-dasharray: none; stroke-linecap: round; stroke-dashoffset: 0; stroke-linejoin: round; stroke-miterlimit: 4; is-custom-font: none; font-file-url: none; fill: rgb(45,175,255); fill-rule: nonzero; opacity: 1;" transform=" translate(-204.8768, -645.3217)" d="m 217.89 635.05 c -1.3781 11.304 -5.2413 24.26 -22.074 19.55 c -4.581 -1.282 -6.1571 -5.73 0.64923 -9.0618 l 21.425 -10.488 z" stroke-linecap="round"/>
</g>
</g>
</g>
</svg>